<svg xmlns="http://www.w3.org/2000/svg" width="138.089" height="138.089" viewBox="0 0 138.089 138.089">
  <g id="accident" transform="translate(-2 -2)">
    <path id="Path_22" data-name="Path 22" d="M34.015,48.03A23.015,23.015,0,1,0,11,25.015,23.015,23.015,0,0,0,34.015,48.03Zm0-41.427A18.412,18.412,0,1,1,15.6,25.015,18.412,18.412,0,0,1,34.015,6.6Z" transform="translate(11.713 0)" fill="#7461cf"/>
    <rect id="Rectangle_45" data-name="Rectangle 45" width="4.603" height="4.603" transform="translate(43.427 64.14)" fill="#7461cf"/>
    <path id="Path_23" data-name="Path 23" d="M96.391,34.22A80.358,80.358,0,0,1,67.3,25.27a2.3,2.3,0,0,0-2.163,0,80.358,80.358,0,0,1-29.088,8.95A2.3,2.3,0,0,0,34,36.508V63.769a50.209,50.209,0,0,0,31.335,46.209,2.3,2.3,0,0,0,1.772,0A50.209,50.209,0,0,0,98.441,63.769V36.508a2.3,2.3,0,0,0-2.051-2.288ZM93.839,63.769A45.581,45.581,0,0,1,66.221,105.35,45.581,45.581,0,0,1,38.6,63.769V38.545A84.883,84.883,0,0,0,66.221,29.9a84.865,84.865,0,0,0,27.618,8.644Z" transform="translate(41.647 29.934)" fill="#7461cf"/>
    <path id="Path_24" data-name="Path 24" d="M41.463,49.009,38.2,52.27,52.009,66.079a2.3,2.3,0,0,0,3.254,0L82.881,38.461,79.627,35.2,53.645,61.207Z" transform="translate(47.114 43.209)" fill="#7461cf"/>
    <path id="Path_25" data-name="Path 25" d="M59.537,61.125H49.058l-17.21-33.1A32.727,32.727,0,0,0,62.3,26.6h4.143a18.315,18.315,0,0,1,13.79,6.3c1.724-.262,3.429-.594,5.121-.971A22.978,22.978,0,0,0,66.441,22H61.654a2.32,2.32,0,0,0-1.229.354,27.984,27.984,0,0,1-29.395,0A2.32,2.32,0,0,0,29.8,22H25.015A23.04,23.04,0,0,0,2,45.015V72.633A11.521,11.521,0,0,0,13.507,84.14h6.9v20.713h4.6V84.14H59.537a11.507,11.507,0,1,0,0-23.015ZM13.507,79.537a6.9,6.9,0,0,1-6.9-6.9V45.015A18.315,18.315,0,0,1,10.93,33.183L25.459,61.125H20.412v4.6h7.441l7.181,13.809Zm26.713,0L14.444,29.965A18.285,18.285,0,0,1,25.015,26.6h.9L53.445,79.537Zm19.316,0h-.9L51.452,65.728h8.085a6.9,6.9,0,1,1,0,13.809Z" transform="translate(0 26.03)" fill="#7461cf"/>
  </g>
</svg>
