<svg id="cancer" xmlns="http://www.w3.org/2000/svg" width="140" height="140" viewBox="0 0 140 140">
  <g id="Group_45" data-name="Group 45" transform="translate(0 0)">
    <path id="Path_130" data-name="Path 130" d="M8.647,70.988A2.051,2.051,0,0,0,10.2,68.538,48.854,48.854,0,0,1,57.832,9.023a48.54,48.54,0,0,1,28.693,9.321,2.051,2.051,0,0,0,2.414-3.316q-1.419-1.033-2.893-1.962L87.5,10.549A2.051,2.051,0,1,0,83.947,8.5L82.5,11.009A52.441,52.441,0,0,0,59.883,4.961V2.051a2.051,2.051,0,0,0-4.1,0V4.965a52.541,52.541,0,0,0-22.6,6.063L31.717,8.5a2.051,2.051,0,0,0-3.552,2.051l1.464,2.536A53.327,53.327,0,0,0,13.085,29.629L10.55,28.165A2.051,2.051,0,1,0,8.5,31.717l2.53,1.461a52.539,52.539,0,0,0-6.063,22.6H2.051a2.051,2.051,0,0,0,0,4.1H4.966A53.1,53.1,0,0,0,6.2,69.434a2.049,2.049,0,0,0,2.449,1.554Z" transform="translate(0 0)" fill="#7461cf"/>
    <path id="Path_131" data-name="Path 131" d="M138.417,91.149A13.553,13.553,0,1,0,124.864,104.7,13.568,13.568,0,0,0,138.417,91.149Zm-23,0a9.451,9.451,0,1,1,9.451,9.452,9.462,9.462,0,0,1-9.451-9.452Z" transform="translate(-80.874 -56.378)" fill="#7461cf"/>
    <path id="Path_132" data-name="Path 132" d="M84.32,222.667a9.431,9.431,0,1,0,9.431-9.431,9.442,9.442,0,0,0-9.431,9.431Zm14.761,0a5.33,5.33,0,1,1-5.33-5.33,5.336,5.336,0,0,1,5.33,5.33Z" transform="translate(-61.264 -154.929)" fill="#7461cf"/>
    <path id="Path_133" data-name="Path 133" d="M269.5,105.988a9.32,9.32,0,1,0,9.32,9.32A9.33,9.33,0,0,0,269.5,105.988Zm0,14.539a5.219,5.219,0,1,1,5.219-5.219A5.224,5.224,0,0,1,269.5,120.527Z" transform="translate(-189.034 -77.007)" fill="#7461cf"/>
    <path id="Path_134" data-name="Path 134" d="M166.912,317.385A7.38,7.38,0,1,0,159.531,310,7.389,7.389,0,0,0,166.912,317.385Zm0-10.659A3.279,3.279,0,1,1,163.633,310,3.283,3.283,0,0,1,166.912,306.726Z" transform="translate(-115.909 -219.875)" fill="#7461cf"/>
    <path id="Path_135" data-name="Path 135" d="M206.755,195.2a7.381,7.381,0,1,0-7.381,7.38A7.389,7.389,0,0,0,206.755,195.2Zm-10.659,0a3.279,3.279,0,1,1,3.279,3.279A3.283,3.283,0,0,1,196.1,195.2Z" transform="translate(-139.496 -136.465)" fill="#7461cf"/>
    <path id="Path_136" data-name="Path 136" d="M157.358,122.988l-26.966-6.346q.115-1.307.164-2.629h2.915a2.051,2.051,0,0,0,0-4.1h-2.914a52.618,52.618,0,0,0-6.041-22.617l2.507-1.447a2.051,2.051,0,0,0-2.051-3.552l-2.512,1.451a53.258,53.258,0,0,0-6.792-8.622,2.051,2.051,0,0,0-2.944,2.856A48.591,48.591,0,0,1,126.5,111.962c0,1.252-.053,2.5-.147,3.742a3.251,3.251,0,0,0-1.28.036l-3.63.854a10.8,10.8,0,0,0-20.212,4.757l-6.959,1.638a3.224,3.224,0,0,0-2.5,3.165,119.574,119.574,0,0,0,4.482,30.959,49.007,49.007,0,0,1-42.684-2.681,1.916,1.916,0,0,0-.6-.344,48.634,48.634,0,0,1-17.45-17.511,2.018,2.018,0,0,0-.1-.211,2.092,2.092,0,0,0-.129-.195,49.413,49.413,0,0,1-2.74-5.608,2.051,2.051,0,0,0-3.791,1.564q.952,2.307,2.108,4.5l-2.511,1.45a2.051,2.051,0,1,0,2.051,3.552l2.512-1.451a52.978,52.978,0,0,0,15,15.527q.772.526,1.56,1.023l-1.453,2.516a2.051,2.051,0,0,0,3.552,2.051l1.45-2.512a52.589,52.589,0,0,0,22.614,6.049v2.911a2.051,2.051,0,1,0,4.1,0v-2.914a52.345,52.345,0,0,0,17.754-3.793,68.727,68.727,0,0,0,8.6,17.389,43.774,43.774,0,0,0,18.552,15.466,2.973,2.973,0,0,0,2.333,0,42.624,42.624,0,0,0,15.862-11.966,2.051,2.051,0,0,0-3.141-2.637,38.658,38.658,0,0,1-13.888,10.637c-27.872-12.43-29.812-55.447-29.934-63.1l29.934-7.045,29.935,7.045c-.086,5.9-1.1,28.383-11.218,45.583a2.051,2.051,0,1,0,3.536,2.08c11.1-18.875,11.77-43.573,11.791-48.333a3.224,3.224,0,0,0-2.5-3.165Zm-45.342-7.819a6.7,6.7,0,0,1,5.156,2.429l-11.68,2.749a6.709,6.709,0,0,1,6.523-5.178Z" transform="translate(-19.857 -54.129)" fill="#7461cf"/>
    <path id="Path_137" data-name="Path 137" d="M345.033,263.438a2.051,2.051,0,0,0-1.577-2.133l-23.572-5.548a2.05,2.05,0,0,0-.94,0L295.373,261.3a2.051,2.051,0,0,0-1.577,2.133,106.671,106.671,0,0,0,5.163,26.948c4.312,12.5,10.855,21.279,19.45,26.1a2.051,2.051,0,0,0,2.008,0c8.6-4.827,15.14-13.611,19.452-26.106A106.66,106.66,0,0,0,345.033,263.438Zm-25.619,48.884c-16.333-10.07-20.391-35.229-21.4-47.426l21.4-5.036,21.4,5.036C339.807,277.091,335.748,302.248,319.414,312.322Z" transform="translate(-213.459 -185.784)" fill="#7461cf"/>
    <path id="Icon_awesome-check" data-name="Icon awesome-check" d="M9.355,24.713.4,15.761a1.377,1.377,0,0,1,0-1.948l1.948-1.948a1.377,1.377,0,0,1,1.948,0l6.03,6.03L23.244,4.981a1.377,1.377,0,0,1,1.948,0L27.14,6.928a1.377,1.377,0,0,1,0,1.948L11.3,24.713A1.377,1.377,0,0,1,9.355,24.713Z" transform="translate(92.185 82.663)" fill="#7461cf"/>
  </g>
</svg>
