<svg id="Car-Insurance" xmlns="http://www.w3.org/2000/svg" width="140" height="139.999" viewBox="0 0 140 139.999">
  <path id="Shape" d="M40.075,56.077,58.3,69.053a2.333,2.333,0,0,0,2.707,0L79.237,56.077a14.42,14.42,0,0,0,6.085-11.7V16.77a2.333,2.333,0,0,0-1.4-2.142L60.589,4.548a2.333,2.333,0,0,0-1.848,0L35.408,14.628a2.333,2.333,0,0,0-1.4,2.142V44.378A14.422,14.422,0,0,0,40.075,56.077ZM38.656,18.3l21-9.07,21,9.07V44.378a9.749,9.749,0,0,1-4.128,7.912l-16.872,12L42.784,52.276a9.741,9.741,0,0,1-4.128-7.9Z" transform="translate(45.344 5.809)" fill="#7461cf"/>
  <path id="Shape-2" data-name="Shape" d="M48.267,39.534a2.334,2.334,0,0,0,3.222-.408L70.156,15.792a2.334,2.334,0,1,0-3.645-2.917L49.244,34.445,41.733,28.8a2.333,2.333,0,0,0-2.8,3.733Z" transform="translate(50.667 15.999)" fill="#7461cf"/>
  <path id="Shape-3" data-name="Shape" d="M4.667,123.666H7V133a7,7,0,0,0,7,7H28a7,7,0,0,0,7-7v-9.333H91V133a7,7,0,0,0,7,7h14a7,7,0,0,0,7-7v-9.333h2.333A4.667,4.667,0,0,0,126,119V84a11.543,11.543,0,0,0-4.034-8.8l8.027-5.712A23.772,23.772,0,0,0,140,50.187V16.445a2.333,2.333,0,0,0-1.4-2.142L105.933.191a2.333,2.333,0,0,0-1.848,0L71.4,14.3A2.333,2.333,0,0,0,70,16.445v9.221H34.7a11.666,11.666,0,0,0-11,7.789L9.954,72.506A11.65,11.65,0,0,0,0,84v35A4.667,4.667,0,0,0,4.667,123.666ZM30.333,133A2.333,2.333,0,0,1,28,135.333H14A2.333,2.333,0,0,1,11.667,133v-9.333H30.333ZM21,119H16.333v-4.667H21Zm93.333,14A2.333,2.333,0,0,1,112,135.333H98A2.333,2.333,0,0,1,95.667,133v-9.333h18.667Zm-4.667-14H105v-4.667h4.667Zm-35-101.022L105,4.874l30.333,13.1v32.2a19.094,19.094,0,0,1-8.048,15.5L105,81.554,82.714,65.688a19.093,19.093,0,0,1-8.048-15.5Zm35,68.355A2.333,2.333,0,0,1,112,88.666v4.667a2.333,2.333,0,0,1-2.333,2.333h-14a2.333,2.333,0,0,1-2.333-2.333,7,7,0,0,1,7-7ZM70,39.666v4.667H53.667V39.666ZM70,35H65.333V30.333H70ZM28.1,35a7,7,0,0,1,6.6-4.667h25.97V35h-7A4.667,4.667,0,0,0,49,39.666v4.667A4.667,4.667,0,0,0,53.667,49H70v1.188a23.772,23.772,0,0,0,10.008,19.3L84,72.333H14.961ZM4.667,84a7,7,0,0,1,7-7h78.89l7.051,5.021a11.667,11.667,0,0,0-8.941,11.312,7,7,0,0,0,7,7h14a7,7,0,0,0,7-7V88.666a7,7,0,0,0-4.468-6.508l5.777-4.114A6.9,6.9,0,0,1,121.333,84v35h-7v-4.667a4.667,4.667,0,0,0-4.667-4.667H105a4.667,4.667,0,0,0-4.667,4.667V119H25.667v-4.667A4.667,4.667,0,0,0,21,109.666H16.333a4.667,4.667,0,0,0-4.667,4.667V119h-7Z" transform="translate(0 0)" fill="#7461cf"/>
  <path id="Shape-4" data-name="Shape" d="M29.136,15H25.144a7.016,7.016,0,0,0-6.6,4.667L9.781,44.559a2.334,2.334,0,0,0,4.4,1.549l8.759-24.883a2.333,2.333,0,0,1,2.2-1.559h3.992a2.333,2.333,0,1,0,0-4.667Z" transform="translate(12.864 19.999)" fill="#7461cf"/>
  <path id="Shape-5" data-name="Shape" d="M11,53.667H25a7,7,0,0,0,7-7A11.68,11.68,0,0,0,20.333,35H11a7,7,0,0,0-7,7v4.667A7,7,0,0,0,11,53.667ZM8.667,42A2.333,2.333,0,0,1,11,39.667h9.333a7,7,0,0,1,7,7A2.333,2.333,0,0,1,25,49H11a2.333,2.333,0,0,1-2.333-2.333Z" transform="translate(5.333 46.666)" fill="#7461cf"/>
  <path id="Shape-6" data-name="Shape" d="M22.667,59.667H55.333A4.667,4.667,0,0,0,60,55V45.667A4.667,4.667,0,0,0,55.333,41H22.667A4.667,4.667,0,0,0,18,45.667V55A4.667,4.667,0,0,0,22.667,59.667Zm0-14H55.333V55H22.667Z" transform="translate(24 54.666)" fill="#7461cf"/>
</svg>
