<svg xmlns="http://www.w3.org/2000/svg" width="140" height="140" viewBox="0 0 140 140">
  <g id="clipboard_1_" data-name="clipboard (1)" transform="translate(0.001 0)">
    <path id="Path_47" data-name="Path 47" d="M84.227,251.828,74.752,261.3l-2.971-2.973a2.735,2.735,0,1,0-3.868,3.868l4.906,4.9a2.733,2.733,0,0,0,3.867,0l11.409-11.409a2.734,2.734,0,1,0-3.867-3.867Zm0,0" transform="translate(-48.762 -182.387)" fill="#7461cf"/>
    <path id="Path_48" data-name="Path 48" d="M180.328,298.078h12.884a2.734,2.734,0,1,0,0-5.469H180.328a2.734,2.734,0,0,0,0,5.469Zm0,0" transform="translate(-129.034 -212.599)" fill="#7461cf"/>
    <path id="Path_49" data-name="Path 49" d="M84.227,360.891l-9.475,9.475-2.971-2.973a2.734,2.734,0,0,0-3.868,3.867l4.906,4.906a2.733,2.733,0,0,0,3.867,0l11.409-11.409a2.734,2.734,0,0,0-3.867-3.867Zm0,0" transform="translate(-48.762 -261.628)" fill="#7461cf"/>
    <path id="Path_50" data-name="Path 50" d="M201.8,404.406a2.735,2.735,0,0,0-2.734-2.734h-18.74a2.734,2.734,0,0,0,0,5.469h18.74A2.735,2.735,0,0,0,201.8,404.406Zm0,0" transform="translate(-129.034 -291.84)" fill="#7461cf"/>
    <path id="Path_51" data-name="Path 51" d="M180.328,363.282h24.6a2.734,2.734,0,0,0,0-5.469h-24.6a2.734,2.734,0,1,0,0,5.469Zm0,0" transform="translate(-129.034 -259.974)" fill="#7461cf"/>
    <path id="Path_52" data-name="Path 52" d="M84.227,142.828,74.752,152.3l-2.971-2.973a2.735,2.735,0,0,0-3.868,3.868l4.906,4.9a2.733,2.733,0,0,0,3.867,0l11.409-11.409a2.734,2.734,0,0,0-3.867-3.867Zm0,0" transform="translate(-48.762 -103.192)" fill="#7461cf"/>
    <path id="Path_53" data-name="Path 53" d="M180.328,189.078h12.3a2.734,2.734,0,0,0,0-5.469h-12.3a2.734,2.734,0,0,0,0,5.469Zm0,0" transform="translate(-129.034 -133.403)" fill="#7461cf"/>
    <path id="Path_54" data-name="Path 54" d="M150.937,492a2.735,2.735,0,1,0,1.93.8A2.764,2.764,0,0,0,150.937,492Zm0,0" transform="translate(-107.677 -357.469)" fill="#7461cf"/>
    <path id="Path_55" data-name="Path 55" d="M329.607,156.029l-19.687,6.147A2.734,2.734,0,0,0,308,164.786v17.531a29.591,29.591,0,0,0,21.7,28.467,2.746,2.746,0,0,0,1.448,0,29.591,29.591,0,0,0,21.7-28.466V164.787a2.735,2.735,0,0,0-1.919-2.61l-19.687-6.147a2.737,2.737,0,0,0-1.63,0ZM347.375,166.8v15.52A24.114,24.114,0,0,1,330.422,205.3a24.114,24.114,0,0,1-16.953-22.983V166.8l16.953-5.293Zm0,0" transform="translate(-223.782 -113.275)" fill="#7461cf"/>
    <path id="Path_56" data-name="Path 56" d="M138.08,40.858l-30.56-9.54a2.728,2.728,0,0,0-.878-.146h0a2.75,2.75,0,0,0-.877.145l-2.949.921V14.749a8.212,8.212,0,0,0-8.2-8.2H74.694V2.735A2.735,2.735,0,0,0,71.959,0H30.852a2.735,2.735,0,0,0-2.734,2.734V6.546H8.2a8.212,8.212,0,0,0-8.2,8.2V131.8A8.212,8.212,0,0,0,8.2,140H30.953a2.734,2.734,0,1,0,0-5.469H8.2A2.737,2.737,0,0,1,5.468,131.8V14.749A2.738,2.738,0,0,1,8.2,12.014H28.117V14.88a5.909,5.909,0,0,0,5.9,5.9H68.791a5.909,5.909,0,0,0,5.9-5.9V12.014H94.608a2.738,2.738,0,0,1,2.734,2.734v19.2L83.671,38.213H51.294a2.734,2.734,0,0,0,0,5.469H73.28V68.018H51.294a2.734,2.734,0,1,0,0,5.469H73.525a40.556,40.556,0,0,0,23.818,32.542V117.3H88.319a8.212,8.212,0,0,0-8.2,8.2v9.023H55.565a2.734,2.734,0,0,0,0,5.469H82.851a2.734,2.734,0,0,0,1.933-.8l17.227-17.227a2.734,2.734,0,0,0,.8-1.933V108q1.628.457,3.313.782a2.722,2.722,0,0,0,1.03,0A40.508,40.508,0,0,0,140,69.043V43.468a2.735,2.735,0,0,0-1.919-2.61ZM69.225,14.88a.434.434,0,0,1-.434.433H34.02a.434.434,0,0,1-.434-.433V5.469H69.225ZM88.319,122.773h5.157l-7.891,7.891v-5.157A2.737,2.737,0,0,1,88.319,122.773Zm46.211-53.73a35.035,35.035,0,0,1-27.891,34.263A35.035,35.035,0,0,1,78.749,69.043V45.479l21.81-6.809a2.707,2.707,0,0,0,.654-.2l5.427-1.7,27.891,8.707Zm0,0" fill="#7461cf"/>
    <path id="Path_57" data-name="Path 57" d="M357.034,242.188a2.725,2.725,0,0,1-1.933-.8l-6.3-6.3a2.734,2.734,0,0,1,3.867-3.868l4.366,4.366,9.267-9.266a2.734,2.734,0,0,1,3.868,3.867l-11.2,11.2A2.728,2.728,0,0,1,357.034,242.188Zm0,0" transform="translate(-252.844 -163.854)" fill="#7461cf"/>
  </g>
</svg>
