<svg xmlns="http://www.w3.org/2000/svg" width="138.109" height="138.012" viewBox="0 0 138.109 138.012">
  <g id="family" transform="translate(0)">
    <path id="Path_44" data-name="Path 44" d="M138.109,252.137v11.137a6.47,6.47,0,0,1-6.469,6.469H6.469A6.47,6.47,0,0,1,0,263.275V252.137a35.408,35.408,0,0,1,24.366-33.605c-17.983-10.3-10.9-38.123,10.134-38.252,20.991.119,28.118,27.87,10.21,38.209a34.252,34.252,0,0,1,11.859,6.469c3.3-12.808,21.563-12.787,24.862,0a34.052,34.052,0,0,1,11.859-6.469C75.383,208.16,82.509,180.4,103.5,180.28c21.034.129,28.118,27.956,10.145,38.252A35.418,35.418,0,0,1,138.109,252.137Zm-4.42,11.137c.216-12.625.722-23.191-8.895-32.894-11.428-12.269-32.064-11.967-43.222.345A12.332,12.332,0,0,1,77,238.154,21.627,21.627,0,0,1,90.563,258.3v7.126h40.969A2.156,2.156,0,0,0,133.688,263.275Zm-46.36-62.521c.679,21.347,31.654,21.358,32.344,0C118.972,179.4,88.008,179.4,87.329,200.754Zm-1,64.623v-7.116a17.422,17.422,0,0,0-17.574-17.25c-9.261.119-17.067,8.226-17.067,17.735v6.7ZM69,236.623c11.191-.237,11.266-16.786,0-17.024C57.766,219.9,57.777,236.418,69,236.623ZM61.022,238.2a12.938,12.938,0,0,1-4.625-7.471,29.9,29.9,0,0,0-21.9-9.455c-16.258-.345-30.554,14.695-30.188,30.867v11.137a2.157,2.157,0,0,0,2.156,2.1H47.341v-6.7A22.234,22.234,0,0,1,61.022,238.2ZM18.328,200.754c.69,21.347,31.654,21.358,32.344,0C49.982,179.4,19.007,179.4,18.328,200.754Z" transform="translate(0 -131.732)" fill="#7461cf"/>
    <path id="Path_45" data-name="Path 45" d="M202.593,7.437a4.787,4.787,0,0,1,2.383,4.442A59.912,59.912,0,0,1,177.667,59.22a4.662,4.662,0,0,1-5,0,59.9,59.9,0,0,1-27.331-47.33,4.787,4.787,0,0,1,2.393-4.453c16.053-9.7,38.8-9.7,54.866,0ZM175.349,55.587c14.673-9.412,25.045-26.36,25.1-44.408a50.764,50.764,0,0,0-50.586,0C149.97,29.032,160.363,46.9,175.349,55.587Z" transform="translate(-106.154 -0.16)" fill="#7461cf"/>
    <path id="Path_46" data-name="Path 46" d="M234.666,60.992a2.157,2.157,0,0,1,.156,3.046L213.594,85.267l0,0a2.155,2.155,0,0,1-3.048,0l-9.218-9.218A2.157,2.157,0,1,1,204.376,73l7.7,7.7,19.7-19.7a2.154,2.154,0,0,1,2.895-.005Z" transform="translate(-146.599 -44.19)" fill="#7461cf"/>
  </g>
</svg>
