<svg xmlns="http://www.w3.org/2000/svg" width="199.929" height="162.674" viewBox="0 0 199.929 162.674">
  <g id="credit-card_1_" data-name="credit-card (1)" transform="translate(92.869 -74.142) rotate(30)">
    <path id="Path_1" data-name="Path 1" d="M89.281,173.5H62.124a5.946,5.946,0,0,0-5.939,5.939v21.439a5.946,5.946,0,0,0,5.939,5.939H89.28a5.946,5.946,0,0,0,5.939-5.939V179.443A5.946,5.946,0,0,0,89.281,173.5Zm1.207,5.939V187.8H78.068v-9.561H89.28A1.209,1.209,0,0,1,90.488,179.443ZM60.917,200.882V179.443a1.209,1.209,0,0,1,1.207-1.207H73.336V202.09H62.124A1.209,1.209,0,0,1,60.917,200.882Zm28.364,1.207H78.068v-9.561h12.42v8.353A1.209,1.209,0,0,1,89.281,202.09Z" transform="translate(-38.461 -73.844)" fill="#fff"/>
    <path id="Path_2" data-name="Path 2" d="M56.185,360.634A2.366,2.366,0,0,0,58.551,363h69.622a2.366,2.366,0,0,0,0-4.732H58.551A2.366,2.366,0,0,0,56.185,360.634Z" transform="translate(-38.461 -200.322)" fill="#fff"/>
    <path id="Path_3" data-name="Path 3" d="M58.551,386.834a2.366,2.366,0,1,0,0,4.732H93.362a2.366,2.366,0,1,0,0-4.732Z" transform="translate(-38.461 -219.877)" fill="#fff"/>
    <path id="Path_4" data-name="Path 4" d="M186.61,312.441v-5.72a2.366,2.366,0,0,0-4.732,0v5.72a2.366,2.366,0,0,0,4.732,0Z" transform="translate(-124.503 -163.417)" fill="#fff"/>
    <path id="Path_5" data-name="Path 5" d="M220.891,312.441v-5.72a2.366,2.366,0,0,0-4.732,0v5.72a2.366,2.366,0,0,0,4.732,0Z" transform="translate(-147.97 -163.417)" fill="#fff"/>
    <path id="Path_6" data-name="Path 6" d="M255.17,312.441v-5.72a2.366,2.366,0,0,0-4.732,0v5.72a2.366,2.366,0,0,0,4.732,0Z" transform="translate(-171.435 -163.417)" fill="#fff"/>
    <path id="Path_7" data-name="Path 7" d="M289.451,312.441v-5.72a2.366,2.366,0,1,0-4.732,0v5.72a2.366,2.366,0,1,0,4.732,0Z" transform="translate(-194.902 -163.417)" fill="#fff"/>
    <path id="Path_8" data-name="Path 8" d="M341.852,306.721v5.72a2.366,2.366,0,0,0,4.732,0v-5.72a2.366,2.366,0,0,0-4.732,0Z" transform="translate(-234.012 -163.417)" fill="#fff"/>
    <path id="Path_9" data-name="Path 9" d="M376.132,306.721v5.72a2.366,2.366,0,0,0,4.732,0v-5.72a2.366,2.366,0,0,0-4.732,0Z" transform="translate(-257.478 -163.417)" fill="#fff"/>
    <path id="Path_10" data-name="Path 10" d="M410.412,306.721v5.72a2.366,2.366,0,1,0,4.732,0v-5.72a2.366,2.366,0,1,0-4.732,0Z" transform="translate(-280.944 -163.417)" fill="#fff"/>
    <path id="Path_11" data-name="Path 11" d="M58.551,314.807a2.366,2.366,0,0,0,2.366-2.366v-5.72a2.366,2.366,0,0,0-4.732,0v5.72A2.366,2.366,0,0,0,58.551,314.807Z" transform="translate(-38.461 -163.417)" fill="#fff"/>
    <path id="Path_12" data-name="Path 12" d="M95.2,312.441v-5.72a2.366,2.366,0,1,0-4.732,0v5.72a2.366,2.366,0,1,0,4.732,0Z" transform="translate(-61.927 -163.417)" fill="#fff"/>
    <path id="Path_13" data-name="Path 13" d="M129.477,312.441v-5.72a2.366,2.366,0,0,0-4.732,0v5.72a2.366,2.366,0,1,0,4.732,0Z" transform="translate(-85.393 -163.417)" fill="#fff"/>
    <path id="Path_14" data-name="Path 14" d="M270.459,89.667a24.034,24.034,0,0,0-47.723-4.056H161.516a2.366,2.366,0,1,0,0,4.732H222.4A24.086,24.086,0,0,0,246.414,113.7h.017a24.207,24.207,0,0,0,9.705-2.044v39.788a2.366,2.366,0,0,0,4.732,0V108.864a24.012,24.012,0,0,0,9.591-19.2Zm-24.036-19.3a19.3,19.3,0,1,1-19.284,18.522A19.326,19.326,0,0,1,246.423,70.363Z" transform="translate(-108.945)" fill="#fff"/>
    <path id="Path_15" data-name="Path 15" d="M399.811,129.652a2.366,2.366,0,0,0,3.686.431l15.3-15.3a2.366,2.366,0,1,0-3.346-3.346l-13.188,13.188-5.1-8.269a2.366,2.366,0,1,0-4.027,2.485Z" transform="translate(-268.878 -30.88)" fill="#fff"/>
    <path id="Path_16" data-name="Path 16" d="M149.558,203.479a2.366,2.366,0,0,0-2.366,2.366V215.6a8.771,8.771,0,0,1-8.761,8.761H13.493A8.771,8.771,0,0,1,4.732,215.6V142.462a8.771,8.771,0,0,1,8.761-8.761H41.53a2.366,2.366,0,1,0,0-4.732H13.493A13.508,13.508,0,0,0,0,142.462V215.6A13.508,13.508,0,0,0,13.493,229.1H138.431A13.508,13.508,0,0,0,151.924,215.6v-9.758A2.366,2.366,0,0,0,149.558,203.479Z" transform="translate(0 -43.358)" fill="#fff"/>
    <path id="Path_17" data-name="Path 17" d="M366.269,244.519v-6.994a3.642,3.642,0,0,0-3.638-3.637H338.471a3.642,3.642,0,0,0-3.638,3.637v6.994a3.642,3.642,0,0,0,3.638,3.638h24.161A3.642,3.642,0,0,0,366.269,244.519Zm-4.732-1.094H339.565V238.62h21.973Z" transform="translate(-229.207 -115.179)" fill="#fff"/>
  </g>
</svg>
